<svg xmlns="http://www.w3.org/2000/svg" viewBox="0 0 32 32" width="32" height="32">
  <defs>
    <linearGradient id="g" x1="9" y1="4" x2="24" y2="29" gradientUnits="userSpaceOnUse">
      <stop offset="0" stop-color="#7cc4ff"/>
      <stop offset="0.35" stop-color="#1c9bff"/>
      <stop offset="0.7" stop-color="#0072e0"/>
      <stop offset="1" stop-color="#0050a8"/>
    </linearGradient>
  </defs>
  <rect width="32" height="32" rx="7" fill="#0d1017"/>
  <path transform="translate(-2.706,-2.668) scale(0.03739)" d="M 518.500 179.853 C 516.300 180.917, 511.110 184.649, 506.966 188.144 C 499.817 194.176, 452.664 234.936, 423.908 259.941 C 419.833 263.484, 405.925 275.564, 393 286.786 C 357.628 317.497, 361.132 311.386, 349.016 363.500 C 344.029 384.950, 338.776 407.225, 337.342 413 C 335.909 418.775, 334.615 426.650, 334.468 430.500 C 334.169 438.305, 330.686 448.025, 320.492 469.500 C 312.993 485.297, 294.358 525.018, 286.479 542 C 283.034 549.425, 276.749 562.925, 272.512 572 C 259.654 599.542, 257.998 603.751, 258.022 608.839 C 258.059 616.638, 258.969 618.102, 281.748 647 C 285.433 651.675, 297.023 666.750, 307.503 680.500 C 317.984 694.250, 333.973 714.725, 343.035 726 C 352.097 737.275, 364.189 752.575, 369.906 760 C 388.137 783.678, 395.326 788.913, 404.946 785.519 C 408.209 784.368, 409.801 784.367, 415.156 785.516 C 418.645 786.265, 433.425 788.734, 448 791.004 C 481.578 796.232, 513.526 801.866, 582 814.633 C 611.375 820.110, 617.198 820.142, 627.894 814.887 C 639.456 809.208, 643.616 803.880, 649.701 786.961 C 656.331 768.527, 680.030 700.661, 682.973 691.684 C 685.701 683.362, 693.022 668.951, 703.642 651 C 717.143 628.178, 725.448 613.918, 731.011 604 C 733.942 598.775, 737.722 592.250, 739.412 589.500 C 741.946 585.375, 742.483 583.450, 742.480 578.500 L 742.476 572.500 720.875 539.849 C 688.422 490.796, 683.468 477.136, 681.035 430 C 680.452 418.725, 679.545 401.850, 679.019 392.500 C 678.492 383.150, 677.767 370.100, 677.408 363.500 C 676.430 345.519, 674.805 342.321, 654.500 318.397 C 651.200 314.509, 645.963 308.217, 642.863 304.414 C 621.497 278.208, 597.588 250.241, 559.585 207 C 552.093 198.475, 544.424 189.216, 542.543 186.424 C 537.777 179.349, 536.850 178.784, 529.235 178.324 C 524.010 178.008, 521.603 178.351, 518.500 179.853 M 479.795 336.587 C 471.277 339.207, 472 326.967, 472 468.523 C 472 556.786, 471.679 594.921, 470.929 595.671 C 470.225 596.375, 465.354 596.572, 456.679 596.246 C 435.651 595.457, 422.972 598.341, 406.282 607.709 C 358.032 634.792, 347.299 692.856, 386.684 713.734 C 425.867 734.505, 483.474 714.580, 508.795 671.500 C 521.220 650.360, 521.069 652.230, 520.965 521.294 C 520.917 460.636, 521.156 410.556, 521.498 410.004 C 525.335 403.796, 563.815 424.330, 579.226 440.809 C 597.079 459.900, 604.297 480.911, 604.422 514.155 C 604.465 525.514, 604.846 534.595, 605.269 534.334 C 606.762 533.411, 610.798 524.401, 613.360 516.273 C 621.697 489.820, 622.377 465.821, 615.351 446 C 598.143 397.456, 566.880 367.061, 513.014 346.505 C 508.005 344.594, 502.016 341.937, 499.704 340.601 C 496.541 338.773, 485.055 334.575, 484.568 335.070 C 484.531 335.108, 482.383 335.791, 479.795 336.587" fill="url(#g)" fill-rule="evenodd"/>
</svg>
